<svg width="250" height="131" viewBox="0 0 250 131" fill="none" xmlns="http://www.w3.org/2000/svg">
<path d="M107.813 37.3621C107.813 57.6981 90.5086 74.2242 69.1114 74.2242C47.7142 74.2242 30.4099 57.6981 30.4099 37.3621C30.4099 17.0261 47.7142 0.5 69.1114 0.5C90.5086 0.5 107.813 17.0261 107.813 37.3621Z" fill="#A6FF7C" stroke="#636363"/>
<mask id="path-2-inside-1" fill="white">
<path fill-rule="evenodd" clip-rule="evenodd" d="M138.223 130.767H-0.000305176C5.36063 98.9942 34.2621 74.724 69.1112 74.724C103.96 74.724 132.862 98.9942 138.223 130.767Z"/>
</mask>
<path fill-rule="evenodd" clip-rule="evenodd" d="M138.223 130.767H-0.000305176C5.36063 98.9942 34.2621 74.724 69.1112 74.724C103.96 74.724 132.862 98.9942 138.223 130.767Z" fill="#A6FF7C"/>
<path d="M-0.000305176 130.767L-0.986368 130.601L-1.18317 131.767H-0.000305176V130.767ZM138.223 130.767V131.767H139.406L139.209 130.601L138.223 130.767ZM-0.000305176 131.767H138.223V129.767H-0.000305176V131.767ZM0.985757 130.934C6.26107 99.668 34.7231 75.724 69.1112 75.724V73.724C33.8011 73.724 4.46019 98.3203 -0.986368 130.601L0.985757 130.934ZM69.1112 75.724C103.499 75.724 131.961 99.668 137.237 130.934L139.209 130.601C133.762 98.3203 104.421 73.724 69.1112 73.724V75.724Z" fill="#636363" mask="url(#path-2-inside-1)"/>
<path d="M219.59 37.3621C219.59 57.6981 202.285 74.2242 180.888 74.2242C159.491 74.2242 142.186 57.6981 142.186 37.3621C142.186 17.0261 159.491 0.5 180.888 0.5C202.285 0.5 219.59 17.0261 219.59 37.3621Z" fill="#A6FF7C" stroke="#636363"/>
<mask id="path-5-inside-2" fill="white">
<path fill-rule="evenodd" clip-rule="evenodd" d="M250 130.767H111.777C117.138 98.9943 146.039 74.7241 180.888 74.7241C215.737 74.7241 244.639 98.9943 250 130.767Z"/>
</mask>
<path fill-rule="evenodd" clip-rule="evenodd" d="M250 130.767H111.777C117.138 98.9943 146.039 74.7241 180.888 74.7241C215.737 74.7241 244.639 98.9943 250 130.767Z" fill="#A6FF7C"/>
<path d="M111.777 130.767L110.791 130.601L110.594 131.767H111.777V130.767ZM250 130.767V131.767H251.183L250.986 130.601L250 130.767ZM111.777 131.767H250V129.767H111.777V131.767ZM112.763 130.934C118.038 99.6681 146.5 75.7241 180.888 75.7241V73.7241C145.578 73.7241 116.237 98.3204 110.791 130.601L112.763 130.934ZM180.888 75.7241C215.276 75.7241 243.738 99.6681 249.014 130.934L250.986 130.601C245.539 98.3204 216.198 73.7241 180.888 73.7241V75.7241Z" fill="#636363" mask="url(#path-5-inside-2)"/>
<path d="M163.701 37.3621C163.701 57.6981 146.397 74.2242 125 74.2242C103.602 74.2242 86.2981 57.6981 86.2981 37.3621C86.2981 17.0261 103.602 0.5 125 0.5C146.397 0.5 163.701 17.0261 163.701 37.3621Z" fill="#8ADCFF" stroke="#636363"/>
<mask id="path-8-inside-3" fill="white">
<path fill-rule="evenodd" clip-rule="evenodd" d="M194.111 130.767H55.8879C61.2489 98.9942 90.1503 74.724 124.999 74.724C159.849 74.724 188.75 98.9942 194.111 130.767Z"/>
</mask>
<path fill-rule="evenodd" clip-rule="evenodd" d="M194.111 130.767H55.8879C61.2489 98.9942 90.1503 74.724 124.999 74.724C159.849 74.724 188.75 98.9942 194.111 130.767Z" fill="#8ADCFF"/>
<path d="M55.8879 130.767L54.9019 130.601L54.7051 131.767H55.8879V130.767ZM194.111 130.767V131.767H195.294L195.097 130.601L194.111 130.767ZM55.8879 131.767H194.111V129.767H55.8879V131.767ZM56.874 130.934C62.1493 99.668 90.6114 75.724 124.999 75.724V73.724C89.6893 73.724 60.3484 98.3203 54.9019 130.601L56.874 130.934ZM124.999 75.724C159.388 75.724 187.85 99.668 193.125 130.934L195.097 130.601C189.651 98.3203 160.31 73.724 124.999 73.724V75.724Z" fill="#636363" mask="url(#path-8-inside-3)"/>
</svg>
